<svg width="800" height="800" viewBox="0 0 800 800" fill="none" xmlns="http://www.w3.org/2000/svg">
<path d="M487.489 148.002C502.176 147.913 516.631 151.676 529.409 158.916C542.188 166.157 552.845 176.621 560.317 189.266C564.325 196.048 567.342 203.332 569.305 210.893C587.886 212.675 605.454 220.614 619.129 233.602C635.282 248.944 644.68 270.074 645.254 292.345C645.551 303.88 643.469 315.232 639.261 325.74C650.665 331.769 660.584 340.376 668.188 350.947C678.469 365.237 684 382.396 684 400C684 417.604 678.469 434.764 668.188 449.054C660.584 459.625 650.665 468.232 639.261 474.261C643.469 484.769 645.551 496.12 645.254 507.656C644.68 529.926 635.282 551.057 619.129 566.399C605.454 579.387 587.886 587.325 569.305 589.108C567.342 596.669 564.325 603.952 560.317 610.735C552.845 623.379 542.188 633.844 529.409 641.084C516.631 648.325 502.176 652.088 487.489 651.998C472.802 651.909 458.396 647.971 445.706 640.576C433.016 633.18 422.487 622.587 415.169 609.853C407.851 597.118 404 582.688 404 568V476H396V568C396 582.688 392.149 597.118 384.831 609.853C377.513 622.587 366.984 633.18 354.294 640.576C341.604 647.971 327.198 651.909 312.511 651.998C297.824 652.088 283.369 648.325 270.591 641.084C257.812 633.844 247.155 623.379 239.683 610.735C235.675 603.952 232.658 596.669 230.695 589.108C212.114 587.325 194.546 579.387 180.871 566.399C164.718 551.057 155.32 529.926 154.746 507.656C154.449 496.12 156.531 484.769 160.739 474.261C149.335 468.232 139.416 459.625 131.812 449.054C121.531 434.764 116 417.604 116 400C116 382.396 121.531 365.237 131.812 350.947C139.416 340.376 149.335 331.769 160.739 325.74C156.531 315.232 154.449 303.88 154.746 292.345C155.32 270.074 164.718 248.944 180.871 233.602C194.546 220.614 212.114 212.675 230.695 210.893C232.658 203.332 235.675 196.048 239.683 189.266C247.155 176.621 257.812 166.157 270.591 158.916C283.369 151.676 297.824 147.913 312.511 148.002C327.198 148.092 341.604 152.03 354.294 159.425C366.984 166.82 377.513 177.413 384.831 190.148C392.149 202.882 396 217.313 396 232V324H404V232C404 217.313 407.851 202.882 415.169 190.148C422.487 177.413 433.016 166.82 445.706 159.425C458.396 152.03 472.802 148.092 487.489 148.002ZM312.364 172.001C301.874 171.938 291.549 174.626 282.422 179.797C273.294 184.969 265.682 192.444 260.345 201.476C255.008 210.508 252.132 220.782 252.005 231.272C251.878 241.762 254.502 252.102 259.618 261.261C263.341 267.925 268.287 273.794 274.172 278.574C278.582 274.933 283.37 271.739 288.467 269.051C300.919 262.485 314.822 259.154 328.898 259.364L328.541 283.361C318.487 283.211 308.556 285.59 299.661 290.281C290.766 294.971 283.193 301.821 277.637 310.202C272.081 318.584 268.72 328.227 267.864 338.245C267.008 348.264 268.684 358.338 272.737 367.54L250.773 377.215C245.099 364.332 242.753 350.229 243.951 336.202C245.15 322.176 249.855 308.675 257.633 296.942C257.761 296.748 257.891 296.554 258.021 296.361C250.23 289.826 243.661 281.907 238.666 272.965C232.233 261.449 228.613 248.599 228.071 235.461C216.636 237.523 205.951 242.881 197.398 251.004C185.86 261.963 179.148 277.056 178.738 292.963C178.441 304.51 181.481 315.801 187.363 325.536C189.584 329.212 192.209 332.666 195.213 335.828C206.171 347.367 221.265 354.079 237.173 354.489L236.555 378.481C214.284 377.907 193.153 368.509 177.811 352.356C176.035 350.486 174.354 348.543 172.77 346.535C164.282 350.858 156.906 357.162 151.294 364.962C143.951 375.17 140 387.426 140 400C140 412.574 143.951 424.831 151.294 435.038C156.906 442.839 164.282 449.142 172.77 453.465C174.354 451.457 176.035 449.514 177.811 447.645C193.153 431.491 214.284 422.094 236.555 421.52L237.173 445.512C221.265 445.922 206.171 452.634 195.213 464.172C192.209 467.335 189.584 470.789 187.363 474.464C181.481 484.2 178.441 495.49 178.738 507.037C179.148 522.945 185.86 538.039 197.398 548.997C205.951 557.12 216.636 562.478 228.071 564.54C228.613 551.402 232.233 538.551 238.666 527.035C243.661 518.094 250.23 510.174 258.021 503.64C257.891 503.447 257.761 503.253 257.633 503.059C249.855 491.325 245.15 477.825 243.951 463.798C242.753 449.772 245.099 435.669 250.773 422.785L272.737 432.46C268.684 441.663 267.008 451.736 267.864 461.755C268.72 471.774 272.081 481.417 277.637 489.798C283.193 498.179 290.766 505.03 299.661 509.72C308.556 514.41 318.487 516.79 328.541 516.64L328.898 540.637C314.822 540.847 300.919 537.516 288.467 530.95C283.37 528.262 278.582 525.068 274.172 521.427C268.287 526.207 263.341 532.076 259.618 538.74C254.502 547.898 251.877 558.24 252.005 568.73C252.132 579.22 255.008 589.493 260.345 598.525C265.682 607.557 273.294 615.032 282.422 620.203C291.549 625.375 301.874 628.063 312.364 627.999C322.855 627.936 333.146 625.122 342.21 619.84C351.274 614.558 358.795 606.991 364.022 597.895C369.249 588.799 372 578.491 372 568V476H340V324H372V232C372 221.51 369.249 211.202 364.022 202.106C358.795 193.01 351.274 185.443 342.21 180.16C333.146 174.878 322.855 172.065 312.364 172.001ZM487.636 172.001C477.145 172.065 466.854 174.878 457.79 180.16C448.726 185.443 441.205 193.01 435.978 202.106C430.751 211.202 428 221.51 428 232V327.868C458.212 337.916 480 366.413 480 400C480 433.587 458.212 462.084 428 472.131V568C428 578.491 430.751 588.799 435.978 597.895C441.205 606.991 448.726 614.558 457.79 619.84C466.854 625.122 477.145 627.936 487.636 627.999C498.126 628.063 508.451 625.375 517.578 620.203C526.706 615.032 534.318 607.557 539.655 598.525C544.992 589.493 547.868 579.22 547.995 568.73C548.123 558.24 545.498 547.898 540.382 538.74C536.659 532.076 531.713 526.207 525.828 521.427C521.418 525.068 516.63 528.262 511.533 530.95C499.081 537.516 485.178 540.847 471.102 540.637L471.459 516.64C481.513 516.79 491.444 514.41 500.339 509.72C509.234 505.03 516.807 498.179 522.363 489.798C527.919 481.417 531.28 471.774 532.136 461.755C532.992 451.736 531.316 441.663 527.263 432.46L549.227 422.785C554.901 435.669 557.247 449.772 556.049 463.798C554.85 477.825 550.145 491.325 542.367 503.059C542.239 503.253 542.109 503.447 541.979 503.64C549.77 510.174 556.339 518.094 561.334 527.035C567.767 538.551 571.387 551.402 571.929 564.54C583.364 562.478 594.049 557.12 602.602 548.997C614.14 538.039 620.852 522.945 621.262 507.037C621.559 495.49 618.519 484.2 612.637 474.464C610.416 470.789 607.791 467.335 604.787 464.172C593.829 452.634 578.735 445.922 562.827 445.512L563.445 421.52C585.716 422.094 606.847 431.491 622.189 447.645C623.965 449.514 625.646 451.457 627.23 453.465C635.718 449.142 643.094 442.839 648.706 435.038C656.049 424.831 660 412.574 660 400C660 387.426 656.049 375.17 648.706 364.962C643.094 357.162 635.718 350.858 627.23 346.535C625.646 348.543 623.965 350.486 622.189 352.356C606.847 368.509 585.716 377.907 563.445 378.481L562.827 354.489C578.735 354.079 593.829 347.367 604.787 335.828C607.791 332.666 610.416 329.212 612.637 325.536C618.519 315.801 621.559 304.51 621.262 292.963C620.852 277.056 614.14 261.963 602.602 251.004C594.049 242.881 583.364 237.523 571.929 235.461C571.387 248.599 567.767 261.449 561.334 272.965C556.339 281.907 549.77 289.826 541.979 296.361C542.109 296.553 542.239 296.748 542.367 296.942C550.145 308.675 554.85 322.176 556.049 336.202C557.247 350.229 554.901 364.332 549.227 377.215L527.263 367.54C531.316 358.338 532.992 348.264 532.136 338.245C531.28 328.227 527.919 318.584 522.363 310.202C516.807 301.821 509.234 294.971 500.339 290.281C491.444 285.591 481.513 283.211 471.459 283.361L471.102 259.364C485.178 259.154 499.081 262.485 511.533 269.051C516.63 271.739 521.418 274.933 525.828 278.574C531.713 273.794 536.659 267.925 540.382 261.261C545.498 252.102 548.123 241.762 547.996 231.272C547.869 220.782 544.992 210.508 539.655 201.476C534.318 192.444 526.706 184.969 517.578 179.797C508.451 174.626 498.126 171.938 487.636 172.001ZM360 456H404C434.928 456 460 430.928 460 400C460 369.072 434.928 344 404 344H360V456Z" fill="#375BDC"/>
</svg>
